<svg width="26" height="21" viewBox="0 0 26 21" fill="none" xmlns="http://www.w3.org/2000/svg">
<path d="M1.25 15L7.59954 8.8092C7.85669 8.55848 8.16197 8.3596 8.49795 8.22391C8.83393 8.08822 9.19403 8.01838 9.55769 8.01838C9.92136 8.01838 10.2815 8.08822 10.6174 8.22391C10.9534 8.3596 11.2587 8.55848 11.5158 8.8092L17.8654 15M16.0192 13.2L17.7534 11.5092C18.0105 11.2585 18.3158 11.0596 18.6518 10.9239C18.9878 10.7882 19.3479 10.7184 19.7115 10.7184C20.0752 10.7184 20.4353 10.7882 20.7713 10.9239C21.1073 11.0596 21.4125 11.2585 21.6697 11.5092L25.25 15M3.09615 19.5H23.4038C23.8935 19.5 24.3631 19.3104 24.7093 18.9728C25.0555 18.6352 25.25 18.1774 25.25 17.7V3.3C25.25 2.82261 25.0555 2.36477 24.7093 2.02721C24.3631 1.68964 23.8935 1.5 23.4038 1.5H3.09615C2.60652 1.5 2.13695 1.68964 1.79073 2.02721C1.44451 2.36477 1.25 2.82261 1.25 3.3V17.7C1.25 18.1774 1.44451 18.6352 1.79073 18.9728C2.13695 19.3104 2.60652 19.5 3.09615 19.5ZM16.0192 6H16.0291V6.0096H16.0192V6ZM16.4808 6C16.4808 6.11935 16.4321 6.23381 16.3456 6.3182C16.259 6.40259 16.1416 6.45 16.0192 6.45C15.8968 6.45 15.7794 6.40259 15.6929 6.3182C15.6063 6.23381 15.5577 6.11935 15.5577 6C15.5577 5.88065 15.6063 5.76619 15.6929 5.6818C15.7794 5.59741 15.8968 5.55 16.0192 5.55C16.1416 5.55 16.259 5.59741 16.3456 5.6818C16.4321 5.76619 16.4808 5.88065 16.4808 6Z" stroke="black" stroke-width="1.5" stroke-linecap="round" stroke-linejoin="round"/>
</svg>
