<svg width="230" height="230" viewBox="0 0 230 230" fill="none" xmlns="http://www.w3.org/2000/svg">
<path d="M100.5 9.52637C109.473 4.34602 120.527 4.34602 129.5 9.52637L199.093 49.7061C208.065 54.8864 213.593 64.4597 213.593 74.8203V155.18C213.593 165.54 208.065 175.114 199.093 180.294L129.5 220.474C120.527 225.654 109.473 225.654 100.5 220.474L30.9072 180.294C21.9347 175.114 16.4073 165.54 16.4072 155.18V74.8203C16.4073 64.4597 21.9347 54.8864 30.9072 49.7061L100.5 9.52637Z" fill="white" stroke="#0077FF" stroke-width="2"/>
<path d="M105 25.7735C111.188 22.2008 118.812 22.2008 125 25.7735L187.272 61.7265C193.46 65.2992 197.272 71.9017 197.272 79.047V150.953C197.272 158.098 193.46 164.701 187.272 168.273L125 204.227C118.812 207.799 111.188 207.799 105 204.227L42.7276 168.273C36.5396 164.701 32.7276 158.098 32.7276 150.953V79.047C32.7276 71.9017 36.5396 65.2992 42.7276 61.7265L105 25.7735Z" fill="#0077FF" fill-opacity="0.15"/>
<path d="M80 128.385L98.5195 109.865C99.2695 109.115 100.16 108.52 101.14 108.114C102.12 107.708 103.17 107.499 104.231 107.499C105.291 107.499 106.342 107.708 107.322 108.114C108.302 108.52 109.192 109.115 109.942 109.865L128.462 128.385M123.077 123L128.135 117.942C128.885 117.192 129.775 116.597 130.755 116.191C131.735 115.785 132.785 115.576 133.846 115.576C134.907 115.576 135.957 115.785 136.937 116.191C137.917 116.597 138.807 117.192 139.557 117.942L150 128.385M85.3846 141.846H144.615C146.043 141.846 147.413 141.279 148.423 140.269C149.433 139.259 150 137.89 150 136.462V93.3846C150 91.9565 149.433 90.5869 148.423 89.5771C147.413 88.5673 146.043 88 144.615 88H85.3846C83.9565 88 82.5869 88.5673 81.5771 89.5771C80.5673 90.5869 80 91.9565 80 93.3846V136.462C80 137.89 80.5673 139.259 81.5771 140.269C82.5869 141.279 83.9565 141.846 85.3846 141.846ZM123.077 101.462H123.106V101.49H123.077V101.462ZM124.423 101.462C124.423 101.819 124.281 102.161 124.029 102.413C123.776 102.666 123.434 102.808 123.077 102.808C122.72 102.808 122.378 102.666 122.125 102.413C121.873 102.161 121.731 101.819 121.731 101.462C121.731 101.105 121.873 100.762 122.125 100.51C122.378 100.257 122.72 100.115 123.077 100.115C123.434 100.115 123.776 100.257 124.029 100.51C124.281 100.762 124.423 101.105 124.423 101.462Z" stroke="#0077FF" stroke-width="2" stroke-linecap="round" stroke-linejoin="round"/>
</svg>
